<svg height="512pt" viewBox="1 0 511 512" width="512pt" xmlns="http://www.w3.org/2000/svg">
  <path fill="#D1D5DB" d="m436.007812 196.625 59.023438-185.507812c.824219-2.59375.363281-5.425782-1.246094-7.621094-1.605468-2.199219-4.164062-3.496094-6.886718-3.496094h-460.800782c-2.71875 0-5.277344 1.296875-6.886718 3.496094-1.605469 2.195312-2.070313 5.027344-1.246094 7.621094l59.027344 185.515624-75.367188 131.933594c-1.511719 2.640625-1.5 5.886719.027344 8.515625 1.527344 2.632813 4.339844 4.25 7.378906 4.25h17.066406v42.667969c.035156 10.8125 6.871094 20.433594 17.070313 24.027344v95.4375c0 4.714844 3.820312 8.535156 8.53125 8.535156h51.199219c4.714843 0 8.535156-3.820312 8.535156-8.535156v-93.863282h290.132812v93.863282c0 4.714844 3.820313 8.535156 8.53125 8.535156h51.203125c4.710938 0 8.53125-3.820312 8.53125-8.535156v-95.4375c10.199219-3.59375 17.035157-13.214844 17.066407-24.027344v-42.667969h17.066406c3.042968 0 5.855468-1.617187 7.382812-4.25 1.523438-2.628906 1.535156-5.875.027344-8.515625zm-17.375 8.175781v59.734375h-197.160156l.84375-7.597656c.265625-2.410156-.507812-4.824219-2.125-6.628906-1.621094-1.808594-3.933594-2.84375-6.359375-2.84375h-8.53125v-25.597656c0-1.324219-.308593-2.632813-.902343-3.816407l-6.625-13.25zm-247.464843 42.664063v-23.582032l8.53125-17.066406 8.535156 17.066406v23.582032zm-16.167969-29.414063c-.59375 1.183594-.902344 2.492188-.902344 3.816407v25.597656h-8.53125c-2.425781 0-4.738281 1.035156-6.359375 2.84375-1.617187 1.804687-2.390625 4.21875-2.125 6.628906l.84375 7.597656h-35.027343v-59.734375h58.726562zm-55.683594 63.550781h40.503906l4.742188 42.664063h-69.625zm55.78125-17.066406h49.199219l-6.640625 59.730469h-35.917969zm64.476563 17.066406h202.640625l24.382812 42.664063h-231.761718zm255.660156-264.535156-54.308594 170.667969h-231.679687l-1.910156-3.816406c-1.601563-2.691407-4.503907-4.339844-7.632813-4.339844-3.132813 0-6.03125 1.648437-7.632813 4.339844l-1.914062 3.816406h-78.078125l-54.3125-170.667969zm-389.402344 198.484375v55.246094l-30.546875 53.46875h-31.550781zm8.535157 279.382813h-34.132813v-85.332032h34.132813zm358.398437 0h-34.132813v-85.332032h34.132813zm17.066406-110.933594c-.003906 4.710938-3.820312 8.53125-8.53125 8.535156h-409.601562c-4.710938-.003906-8.53125-3.824218-8.53125-8.535156v-42.667969h426.664062zm8.535157-59.734375h-12.117188l-30.550781-53.464844v-40.308593l53.566406 93.773437zm0 0"/>
</svg>
